<svg version="1.1" xmlns="http://www.w3.org/2000/svg" xmlns:xlink="http://www.w3.org/1999/xlink" width="48" height="48"><defs><linearGradient x1="6.11348" y1="11.35239" x2="44.00784" y2="38.76891" gradientUnits="userSpaceOnUse" id="color-1"><stop offset="0" stop-color="#000000" stop-opacity="0.47"></stop><stop offset="1" stop-color="#000000" stop-opacity="0"></stop></linearGradient><filter id="dropshadow-base"><feColorMatrix type="matrix" values="0 0 0 0 0  0 0 0 0 0  0 0 0 0 0  0 0 0 .8 0"></feColorMatrix> <feOffset dx="0" dy="1"></feOffset> <feGaussianBlur stdDeviation="1"></feGaussianBlur> <feComposite in="SourceGraphic"></feComposite></filter><filter id="dropshadow-banner" x="-10%" y="-10%" width="120%" height="130%"><feColorMatrix type="matrix" values="0 0 0 0 0  0 0 0 0 0  0 0 0 0 0  0 0 0 .4 0"></feColorMatrix> <feOffset dx="0" dy="1"></feOffset> <feGaussianBlur stdDeviation="0.5"></feGaussianBlur> <feComposite in="SourceGraphic"></feComposite></filter></defs><g fill="none" fill-rule="nonzero" stroke="none" stroke-width="none" stroke-linecap="butt" stroke-linejoin="miter" stroke-miterlimit="10" stroke-dasharray="" stroke-dashoffset="0" font-family="none" font-weight="none" font-size="none" text-anchor="none" style="mix-blend-mode: normal"><path d="M2,24c0,-12.15026 9.84974,-22 22,-22c12.15026,0 22,9.84974 22,22c0,12.15026 -9.84974,22 -22,22c-12.15026,0 -22,-9.84974 -22,-22z" id="base 1 9" fill="#2e2e2e" stroke-width="1"></path><path d="M9.36557,22.01317c8.08145,-8.08145 21.18739,-8.08145 29.26886,0l3.1276,-3.1276c-9.92759,-7.82926 -24.36675,-7.16364 -33.52723,1.99683l-2.12132,-2.12132c9.87824,-9.87824 25.8948,-9.87824 35.77304,0l2.12132,2.12132l-3.25209,3.25209c-8.08147,-8.08145 -21.18741,-8.08145 -29.26886,0zM24,36.64759l4.39284,-4.39284c-2.42064,-0.8405 -5.21848,-0.29516 -7.14966,1.63601l-2.12131,-2.12131h-0.00002c2.69112,-2.69112 7.06518,-2.69112 9.75629,0l2.12132,2.12132l-4.87814,4.87814zM21.24318,33.89078h-0.00002c0,0 0.00001,-0.00001 0.00001,-0.00001zM15.86975,28.51737c4.48789,-4.48789 11.77259,-4.48789 16.26047,0l3.05463,-3.05463c-6.26581,-4.27721 -14.88611,-3.63592 -20.44588,1.92386l-2.12132,-2.12132c6.28466,-6.28468 16.47998,-6.28468 22.76466,0l2.12132,2.12132l-3.25209,3.25209c-4.48789,-4.48789 -11.77259,-4.48789 -16.26047,0z" fill="url(#color-1)" stroke-width="1"></path><path d="M6.11348,18.76108l3.25209,3.25209c8.08145,-8.08145 21.1874,-8.08145 29.26885,0l3.25209,-3.25209c-9.87824,-9.87824 -25.8948,-9.87824 -35.77304,0zM19.12186,31.76946l4.87814,4.87814l4.87814,-4.87814c-2.69111,-2.69111 -7.06518,-2.69111 -9.75628,0zM12.61767,25.26527l3.25209,3.25209c4.48789,-4.48789 11.77258,-4.48789 16.26047,0l3.25209,-3.25209c-6.28467,-6.28467 -16.47999,-6.28467 -22.76466,0z" fill="none" stroke-width="0"></path><path d="M41.88652,18.76108l-3.25209,3.25209c-8.08145,-8.08145 -21.1874,-8.08145 -29.26885,0l-3.25209,-3.25209c9.87824,-9.87824 25.8948,-9.87824 35.77304,0zM28.87814,31.76946l-4.87814,4.87814l-4.87814,-4.87814c2.69111,-2.69111 7.06518,-2.69111 9.75628,0zM35.38233,25.26527l-3.25209,3.25209c-4.48789,-4.48789 -11.77258,-4.48789 -16.26047,0l-3.25209,-3.25209c6.28467,-6.28467 16.47999,-6.28467 22.76466,0z" fill="#00ff00" stroke-width="0"></path><path d="M2,24c0,-12.15026 9.84974,-22 22,-22c12.15026,0 22,9.84974 22,22c0,12.15026 -9.84974,22 -22,22c-12.15026,0 -22,-9.84974 -22,-22z" id="base 1 5 1" fill="none" stroke-width="1"></path><path d="M2,24c0,-12.15026 9.84974,-22 22,-22c12.15026,0 22,9.84974 22,22c0,12.15026 -9.84974,22 -22,22c-12.15026,0 -22,-9.84974 -22,-22z" id="base 1 1 1" fill="none" stroke-width="1"></path><g fill="#000000" stroke-width="1" font-family="Roboto, sans-serif" font-weight="400" font-size="14" text-anchor="start"></g><rect x="2" y="2" width="44" height="22" fill="none" stroke-width="1"></rect><path d="M2,24v-22h44v22z" fill="none" stroke-width="1"></path><path d="M2,24v-22h44v22z" fill="none" stroke-width="1"></path><path d="M2,24v-22h44v22z" fill="none" stroke-width="1"></path><path d="M2,24v-22h44v22z" fill="none" stroke-width="1"></path><g fill="#000000" stroke-width="1" font-family="Roboto, sans-serif" font-weight="400" font-size="14" text-anchor="start"></g><rect x="2" y="2" width="44" height="22" fill="none" stroke-width="1"></rect><path d="M2,24v-22h44v22z" fill="none" stroke-width="1"></path><path d="M2,24v-22h44v22z" fill="none" stroke-width="1"></path><path d="M2,24v-22h44v22z" fill="none" stroke-width="1"></path><path d="M2,24v-22h44v22z" fill="none" stroke-width="1"></path></g></svg>